<svg width="136" height="136" viewBox="0 0 136 136" fill="none" xmlns="http://www.w3.org/2000/svg">
<path d="M97.2612 30C101.959 30 105.769 33.8097 105.769 38.5077V61.0679C105.769 65.766 101.959 69.5757 97.2612 69.5757H96.0561C94.2677 69.5755 92.5239 69.011 91.0743 67.9637L79.6931 59.7425C76.7195 57.5943 72.703 57.5943 69.7294 59.7425L58.3483 67.9637C56.8986 69.011 55.1548 69.5755 53.3665 69.5757H53.2104C48.5124 69.5757 44.7026 65.766 44.7026 61.0679V38.5077C44.7026 33.8097 48.5124 30 53.2104 30H97.2612Z" fill="#42AFB1"/>
<path fill-rule="evenodd" clip-rule="evenodd" d="M37.507 105.697C32.809 105.697 29.0001 101.888 29.0001 97.1898L29.0001 73.7338C29.0001 69.5096 32.3879 66.0662 36.6115 65.9974C38.8648 65.9608 41.0222 66.908 42.5197 68.5922L46.4279 72.9887C49.3378 76.2615 54.2571 76.7901 57.796 74.2103L67.6779 67.0062C69.0661 65.9942 70.7336 65.435 72.4513 65.4066C77.0061 65.3315 80.7774 68.9277 80.9201 73.4808L81.6544 96.9242C81.8046 101.724 77.9547 105.697 73.1525 105.697L37.507 105.697Z" fill="#42AFB1"/>
</svg>
